<mxfile host="app.diagrams.net" agent="Mozilla/5.0 (Windows NT 10.0; Win64; x64) AppleWebKit/537.36 (KHTML, like Gecko) Chrome/135.0.0.0 Safari/537.36" version="26.2.14">
  <diagram name="Page-1" id="pyzRk8hU9FIlRQVQMcew">
    <mxGraphModel dx="1426" dy="751" grid="1" gridSize="10" guides="1" tooltips="1" connect="1" arrows="1" fold="1" page="1" pageScale="1" pageWidth="850" pageHeight="1100" math="0" shadow="0">
      <root>
        <mxCell id="0" />
        <mxCell id="1" parent="0" />
        <mxCell id="k_QSSW2EdRkLZNwSfFR7-3" value="HQ" style="swimlane;whiteSpace=wrap;html=1;" parent="1" vertex="1">
          <mxGeometry width="440" height="511" as="geometry" />
        </mxCell>
        <mxCell id="k_QSSW2EdRkLZNwSfFR7-1" value="" style="shape=mxgraph.cisco.security.router_firewall;sketch=0;html=1;pointerEvents=1;dashed=0;fillColor=#036897;strokeColor=#ffffff;strokeWidth=2;verticalLabelPosition=bottom;verticalAlign=top;align=center;outlineConnect=0;" parent="k_QSSW2EdRkLZNwSfFR7-3" vertex="1">
          <mxGeometry x="181.00000000000006" y="380" width="78" height="62" as="geometry" />
        </mxCell>
        <mxCell id="k_QSSW2EdRkLZNwSfFR7-5" value="ISP02" style="shape=mxgraph.cisco.switches.workgroup_switch;sketch=0;html=1;pointerEvents=1;dashed=0;fillColor=#036897;strokeColor=#ffffff;strokeWidth=2;verticalLabelPosition=bottom;verticalAlign=top;align=center;outlineConnect=0;" parent="k_QSSW2EdRkLZNwSfFR7-3" vertex="1">
          <mxGeometry x="40.00000000000006" y="231" width="101" height="50" as="geometry" />
        </mxCell>
        <mxCell id="k_QSSW2EdRkLZNwSfFR7-6" value="ISP01" style="shape=mxgraph.cisco.switches.workgroup_switch;sketch=0;html=1;pointerEvents=1;dashed=0;fillColor=#036897;strokeColor=#ffffff;strokeWidth=2;verticalLabelPosition=bottom;verticalAlign=top;align=center;outlineConnect=0;" parent="k_QSSW2EdRkLZNwSfFR7-3" vertex="1">
          <mxGeometry x="300.00000000000006" y="231" width="101" height="50" as="geometry" />
        </mxCell>
        <mxCell id="k_QSSW2EdRkLZNwSfFR7-8" value="Spectrum" style="ellipse;shape=cloud;whiteSpace=wrap;html=1;" parent="k_QSSW2EdRkLZNwSfFR7-3" vertex="1">
          <mxGeometry x="25" y="80" width="131" height="80" as="geometry" />
        </mxCell>
        <mxCell id="k_QSSW2EdRkLZNwSfFR7-9" value="L3" style="ellipse;shape=cloud;whiteSpace=wrap;html=1;" parent="k_QSSW2EdRkLZNwSfFR7-3" vertex="1">
          <mxGeometry x="270" y="80" width="131" height="80" as="geometry" />
        </mxCell>
        <mxCell id="k_QSSW2EdRkLZNwSfFR7-11" value="" style="endArrow=none;html=1;rounded=0;entryX=0.55;entryY=0.95;entryDx=0;entryDy=0;entryPerimeter=0;exitX=0.5;exitY=0;exitDx=0;exitDy=0;exitPerimeter=0;" parent="k_QSSW2EdRkLZNwSfFR7-3" source="k_QSSW2EdRkLZNwSfFR7-5" target="k_QSSW2EdRkLZNwSfFR7-8" edge="1">
          <mxGeometry width="50" height="50" relative="1" as="geometry">
            <mxPoint x="400" y="270" as="sourcePoint" />
            <mxPoint x="450" y="220" as="targetPoint" />
          </mxGeometry>
        </mxCell>
        <mxCell id="k_QSSW2EdRkLZNwSfFR7-12" value="" style="endArrow=none;html=1;rounded=0;entryX=0.55;entryY=0.95;entryDx=0;entryDy=0;entryPerimeter=0;exitX=0.5;exitY=0;exitDx=0;exitDy=0;exitPerimeter=0;" parent="k_QSSW2EdRkLZNwSfFR7-3" source="k_QSSW2EdRkLZNwSfFR7-6" target="k_QSSW2EdRkLZNwSfFR7-9" edge="1">
          <mxGeometry width="50" height="50" relative="1" as="geometry">
            <mxPoint x="400" y="270" as="sourcePoint" />
            <mxPoint x="450" y="220" as="targetPoint" />
          </mxGeometry>
        </mxCell>
        <mxCell id="k_QSSW2EdRkLZNwSfFR7-13" value="" style="endArrow=none;html=1;rounded=0;exitX=0.98;exitY=0.5;exitDx=0;exitDy=0;exitPerimeter=0;entryX=0;entryY=0.5;entryDx=0;entryDy=0;entryPerimeter=0;" parent="k_QSSW2EdRkLZNwSfFR7-3" source="k_QSSW2EdRkLZNwSfFR7-5" target="k_QSSW2EdRkLZNwSfFR7-6" edge="1">
          <mxGeometry width="50" height="50" relative="1" as="geometry">
            <mxPoint x="400" y="270" as="sourcePoint" />
            <mxPoint x="450" y="220" as="targetPoint" />
          </mxGeometry>
        </mxCell>
        <mxCell id="k_QSSW2EdRkLZNwSfFR7-14" value="" style="endArrow=none;html=1;rounded=0;entryX=0.87;entryY=0.74;entryDx=0;entryDy=0;entryPerimeter=0;exitX=0.12;exitY=0.09;exitDx=0;exitDy=0;exitPerimeter=0;" parent="k_QSSW2EdRkLZNwSfFR7-3" source="k_QSSW2EdRkLZNwSfFR7-1" target="k_QSSW2EdRkLZNwSfFR7-5" edge="1">
          <mxGeometry width="50" height="50" relative="1" as="geometry">
            <mxPoint x="400" y="270" as="sourcePoint" />
            <mxPoint x="450" y="220" as="targetPoint" />
          </mxGeometry>
        </mxCell>
        <mxCell id="k_QSSW2EdRkLZNwSfFR7-15" value="" style="endArrow=none;html=1;rounded=0;entryX=0;entryY=0.98;entryDx=0;entryDy=0;entryPerimeter=0;exitX=0.88;exitY=0.09;exitDx=0;exitDy=0;exitPerimeter=0;" parent="k_QSSW2EdRkLZNwSfFR7-3" source="k_QSSW2EdRkLZNwSfFR7-1" target="k_QSSW2EdRkLZNwSfFR7-6" edge="1">
          <mxGeometry width="50" height="50" relative="1" as="geometry">
            <mxPoint x="400" y="270" as="sourcePoint" />
            <mxPoint x="450" y="220" as="targetPoint" />
          </mxGeometry>
        </mxCell>
        <mxCell id="k_QSSW2EdRkLZNwSfFR7-18" value="Interconnect Trunk VLANS:&lt;div&gt;2900&lt;/div&gt;&lt;div&gt;2901&lt;/div&gt;" style="text;html=1;align=center;verticalAlign=middle;whiteSpace=wrap;rounded=0;" parent="k_QSSW2EdRkLZNwSfFR7-3" vertex="1">
          <mxGeometry x="135" y="200" width="170" height="50" as="geometry" />
        </mxCell>
        <mxCell id="MOe9JehuYnDUfpq1b72_-2" value="8.37.38.2/24" style="text;html=1;align=center;verticalAlign=middle;whiteSpace=wrap;rounded=0;" vertex="1" parent="k_QSSW2EdRkLZNwSfFR7-3">
          <mxGeometry x="259" y="370" width="81" height="30" as="geometry" />
        </mxCell>
        <mxCell id="MOe9JehuYnDUfpq1b72_-3" value="66.57.150.194/27" style="text;html=1;align=center;verticalAlign=middle;whiteSpace=wrap;rounded=0;" vertex="1" parent="k_QSSW2EdRkLZNwSfFR7-3">
          <mxGeometry x="80" y="370" width="101" height="30" as="geometry" />
        </mxCell>
        <mxCell id="MOe9JehuYnDUfpq1b72_-4" value="2901" style="text;html=1;align=center;verticalAlign=middle;whiteSpace=wrap;rounded=0;" vertex="1" parent="k_QSSW2EdRkLZNwSfFR7-3">
          <mxGeometry x="141" y="300" width="60" height="30" as="geometry" />
        </mxCell>
        <mxCell id="MOe9JehuYnDUfpq1b72_-5" value="2900" style="text;html=1;align=center;verticalAlign=middle;whiteSpace=wrap;rounded=0;" vertex="1" parent="k_QSSW2EdRkLZNwSfFR7-3">
          <mxGeometry x="230" y="300" width="60" height="30" as="geometry" />
        </mxCell>
        <mxCell id="k_QSSW2EdRkLZNwSfFR7-4" value="DR" style="swimlane;whiteSpace=wrap;html=1;" parent="1" vertex="1">
          <mxGeometry x="440" width="410" height="511" as="geometry" />
        </mxCell>
        <mxCell id="k_QSSW2EdRkLZNwSfFR7-2" value="" style="shape=mxgraph.cisco.security.router_firewall;sketch=0;html=1;pointerEvents=1;dashed=0;fillColor=#036897;strokeColor=#ffffff;strokeWidth=2;verticalLabelPosition=bottom;verticalAlign=top;align=center;outlineConnect=0;" parent="k_QSSW2EdRkLZNwSfFR7-4" vertex="1">
          <mxGeometry x="166" y="380" width="78" height="62" as="geometry" />
        </mxCell>
        <mxCell id="k_QSSW2EdRkLZNwSfFR7-7" value="ISPAAS" style="shape=mxgraph.cisco.switches.workgroup_switch;sketch=0;html=1;pointerEvents=1;dashed=0;fillColor=#036897;strokeColor=#ffffff;strokeWidth=2;verticalLabelPosition=bottom;verticalAlign=top;align=center;outlineConnect=0;" parent="k_QSSW2EdRkLZNwSfFR7-4" vertex="1">
          <mxGeometry x="155" y="231" width="101" height="50" as="geometry" />
        </mxCell>
        <mxCell id="k_QSSW2EdRkLZNwSfFR7-10" value="SP ISPAAS" style="ellipse;shape=cloud;whiteSpace=wrap;html=1;" parent="k_QSSW2EdRkLZNwSfFR7-4" vertex="1">
          <mxGeometry x="140" y="80" width="131" height="80" as="geometry" />
        </mxCell>
        <mxCell id="MOe9JehuYnDUfpq1b72_-1" value="" style="endArrow=none;html=1;rounded=0;entryX=0.5;entryY=0.98;entryDx=0;entryDy=0;entryPerimeter=0;exitX=0.5;exitY=0;exitDx=0;exitDy=0;exitPerimeter=0;" edge="1" parent="k_QSSW2EdRkLZNwSfFR7-4" source="k_QSSW2EdRkLZNwSfFR7-2" target="k_QSSW2EdRkLZNwSfFR7-7">
          <mxGeometry width="50" height="50" relative="1" as="geometry">
            <mxPoint x="-40" y="310" as="sourcePoint" />
            <mxPoint x="10" y="260" as="targetPoint" />
          </mxGeometry>
        </mxCell>
        <mxCell id="k_QSSW2EdRkLZNwSfFR7-19" value="" style="endArrow=none;html=1;rounded=0;entryX=0;entryY=0.5;entryDx=0;entryDy=0;entryPerimeter=0;exitX=0.98;exitY=0.5;exitDx=0;exitDy=0;exitPerimeter=0;" parent="1" source="k_QSSW2EdRkLZNwSfFR7-6" target="k_QSSW2EdRkLZNwSfFR7-7" edge="1">
          <mxGeometry width="50" height="50" relative="1" as="geometry">
            <mxPoint x="400" y="270" as="sourcePoint" />
            <mxPoint x="450" y="220" as="targetPoint" />
          </mxGeometry>
        </mxCell>
      </root>
    </mxGraphModel>
  </diagram>
</mxfile>
